<mxfile host="app.diagrams.net" modified="2024-06-27T09:42:46.043Z" agent="Mozilla/5.0 (Windows NT 10.0; Win64; x64; rv:127.0) Gecko/20100101 Firefox/127.0" version="24.5.4" etag="TFOLlUkrTnKxiCTqQMjt" type="github">
  <diagram name="Page-1" id="iLqDgEH3peDFEOUMq_Wz">
    <mxGraphModel>
      <root>
        <mxCell id="0" />
        <mxCell id="1" parent="0" />
      </root>
    </mxGraphModel>
  </diagram>
</mxfile>
